<svg xmlns="http://www.w3.org/2000/svg" id="Ebene_2" data-name="Ebene 2" viewBox="0 0 67.73 83.45" width="67.73" height="83.45"><metadata><rdf:RDF xmlns:rdf="http://www.w3.org/1999/02/22-rdf-syntax-ns#" xmlns:dc="http://purl.org/dc/elements/1.1/"><rdf:Description><dc:creator>RealFaviconGenerator</dc:creator><dc:source>https://realfavicongenerator.net</dc:source></rdf:Description></rdf:RDF></metadata><g id="Ebene_1-2" data-name="Ebene 1">
    <g>
      <path d="M24.66,46.87l-7.25,18.08c2.02.03,3.3-.91,5.34-.55-7.72,6.09-14.43,12.74-22.75,19.06,4.95-13.7,10.95-25.76,15.81-38.47-1.99-.52-3.51-.91-5.69-1.64l19.46-7.98c2.22,3.8,4.08,7.35,6.63,11.14l19.55-24.9,11.97-5.2-6.86,10.03-.02,28.05,5.96-.98-21.26,22.83c1.12-5.57,4.28-10.23,4.78-15.71l.52-19.01-16.92,20.44-9.26-15.18Z" style="fill: #184e4d;"></path>
      <path d="M33.58,13.1l2.81.55c-.88,1.99-1.69,4.02-2.34,6.11l2.97.25-2.28,7.23c2.45-2.99,3.79-6.27,5.84-9.52l-3.08-.11c1.02-2.38,1.96-4.11,3.34-6.29l-3.38-.41,2.47-6.91,7.14-4.01c-1.29,4.93-2.17,9.41-2.34,14.27l-2.31,2,1.81.73c.81.33,1.01,7.2,3.03,10.87l-10.74,13.93c-2.21-3.21-3.92-6.23-5.93-9.78l-18.91,7.44c1.71-3.08,4.7-3.88,6.62-6.21,3.27-10.14,8.52-19.15,17.05-26.11l-1.78,5.97Z" style="fill: #184e4d;"></path>
      <rect x="22.72" y="64.03" width=".17" height=".17" transform="translate(-38.66 34.9) rotate(-45)" style="fill: #184e4d;"></rect>
    </g>
  </g><style>@media (prefers-color-scheme: light) { :root { filter: contrast(1) brightness(0.1); } }
@media (prefers-color-scheme: dark) { :root { filter: contrast(0.3846153846153846) brightness(4.5); } }
</style></svg>